<?xml version="1.0" standalone="no"?>
<!DOCTYPE svg PUBLIC "-//W3C//DTD SVG 20010904//EN"
 "http://www.w3.org/TR/2001/REC-SVG-20010904/DTD/svg10.dtd">
<svg version="1.0" xmlns="http://www.w3.org/2000/svg"
 width="1194.000000pt" height="1129.000000pt" viewBox="0 0 1194.000000 1129.000000"
 preserveAspectRatio="xMidYMid meet">

<g transform="translate(0.000000,1129.000000) scale(0.100000,-0.100000)"
fill="#000000" stroke="none">
<path d="M5009 11126 c-118 -84 -214 -158 -214 -165 0 -6 173 -252 385 -547
212 -295 386 -542 388 -548 1 -7 -1231 -1731 -2738 -3832 l-2741 -3819 2916
-3 c1604 -1 4225 -1 5825 0 l2908 3 -2744 3823 -2744 3824 378 526 c208 290
386 539 395 553 l17 26 -220 158 c-121 87 -223 155 -226 152 -3 -3 -155 -214
-338 -468 -183 -255 -336 -464 -342 -466 -5 -1 -160 209 -344 467 -184 258
-338 469 -341 469 -4 1 -103 -68 -220 -153z m3285 -5051 l2375 -3310 -4751 -3
c-2613 -1 -4753 0 -4755 2 -2 2 1065 1494 2373 3315 1307 1822 2378 3311 2379
3309 2 -2 1073 -1493 2379 -3313z"/>
<path d="M5250 6635 l0 -225 -420 0 -420 0 0 -210 0 -210 420 0 420 0 0 -250
0 -250 -420 0 -420 0 0 -210 0 -210 420 0 420 0 0 -280 0 -280 -420 0 -420 0
0 -210 0 -210 420 0 420 0 0 -240 0 -240 -420 0 -420 0 0 -215 0 -215 630 0
630 0 0 1840 0 1840 -210 0 -210 0 0 -225z"/>
<path d="M6180 5020 l0 -1840 210 0 210 0 0 455 0 455 435 0 435 0 0 210 0
210 -435 0 -435 0 0 280 0 280 435 0 435 0 0 210 0 210 -435 0 -435 0 0 250 0
250 435 0 435 0 0 210 0 210 -435 0 -435 0 0 225 0 225 -210 0 -210 0 0 -1840z"/>
<path d="M240 1520 l0 -120 -115 0 -115 0 0 -135 0 -135 115 0 116 0 -3 -97
-3 -98 -112 -3 -113 -3 0 -134 0 -135 115 0 115 0 0 -95 0 -95 -115 0 -115 0
0 -135 0 -134 113 -3 112 -3 3 -92 3 -93 134 0 135 0 0 815 0 815 -135 0 -135
0 0 -120z"/>
<path d="M660 825 l0 -815 140 0 140 0 0 95 0 95 110 0 110 0 0 135 0 135
-110 0 -110 0 0 95 0 95 110 0 110 0 0 135 0 135 -110 0 -110 0 0 100 0 100
110 0 110 0 0 135 0 135 -110 0 -110 0 0 120 0 120 -140 0 -140 0 0 -815z"/>
<path d="M1810 1520 l0 -120 -220 0 -220 0 0 -700 0 -700 580 0 580 0 0 700 0
700 -220 0 -220 0 0 120 0 120 -140 0 -140 0 0 -120z m448 -467 l3 -93 -311 0
-310 0 0 88 c0 49 3 92 7 95 4 4 142 6 307 5 l301 -3 3 -92z m2 -353 l0 -90
-310 0 -310 0 0 90 0 90 310 0 310 0 0 -90z m0 -350 l0 -90 -310 0 -310 0 0
90 0 90 310 0 310 0 0 -90z"/>
<path d="M3158 1523 l-3 -118 -217 -3 -218 -2 0 -135 0 -135 100 0 100 0 0
-425 0 -424 -97 -3 -98 -3 0 -135 0 -135 568 -3 567 -2 0 140 0 140 -95 0 -95
0 0 425 0 425 95 0 95 0 0 135 0 135 -215 0 -215 0 0 120 0 120 -135 0 -134 0
-3 -117z m232 -818 l0 -425 -100 0 -100 0 0 425 0 425 100 0 100 0 0 -425z"/>
<path d="M8110 1505 l0 -135 565 0 565 0 0 135 0 135 -565 0 -565 0 0 -135z"/>
<path d="M9460 1505 l0 -135 235 0 235 0 0 135 0 135 -235 0 -235 0 0 -135z"/>
<path d="M10100 1505 l0 -135 100 0 100 0 0 135 0 135 -100 0 -100 0 0 -135z"/>
<path d="M10410 1505 l0 -135 105 0 105 0 0 135 0 135 -105 0 -105 0 0 -135z"/>
<path d="M11450 1515 l0 -125 -330 0 -330 0 0 -140 0 -140 285 0 c157 0 285
-3 285 -7 0 -5 -133 -251 -295 -548 l-295 -540 152 -3 c83 -1 155 1 159 5 4 5
85 150 179 323 94 173 176 319 181 325 5 5 9 -121 9 -323 l0 -332 135 0 135 0
0 550 0 550 110 0 110 0 0 140 0 140 -110 0 -110 0 0 125 0 125 -135 0 -135 0
0 -125z"/>
<path d="M4070 1495 l0 -135 116 0 c136 0 136 5 4 -96 -50 -38 -90 -72 -90
-77 0 -5 50 -67 110 -138 61 -72 108 -134 106 -138 -3 -4 -59 -45 -125 -92
l-121 -84 0 -137 0 -138 213 -2 212 -3 3 -222 2 -223 135 0 135 0 2 223 3 222
213 3 212 2 0 135 0 135 -347 2 -347 3 324 235 324 235 -207 3 -207 2 -90 -65
c-49 -36 -94 -65 -99 -65 -5 0 -26 20 -47 46 -43 53 -53 37 98 152 l106 82
246 0 246 0 0 135 0 135 -565 0 -565 0 0 -135z"/>
<path d="M5380 1160 l0 -470 225 0 225 0 0 -85 0 -85 -200 0 -200 0 0 -135 0
-135 200 0 199 0 3 -102 3 -103 135 0 135 0 3 103 3 102 99 0 100 0 0 -120 0
-120 135 0 135 0 0 255 0 255 -235 0 -235 0 0 85 0 85 225 0 225 0 0 470 0
470 -590 0 -590 0 0 -470z m450 150 l0 -80 -120 0 -120 0 0 73 c0 41 3 77 7
80 3 4 57 7 120 7 l113 0 0 -80z m518 -2 l3 -78 -121 0 -120 0 0 80 0 81 118
-3 117 -3 3 -77z m-518 -298 l0 -81 -117 3 -118 3 -3 78 -3 77 121 0 120 0 0
-80z m520 0 l0 -80 -120 0 -120 0 0 80 0 80 120 0 120 0 0 -80z"/>
<path d="M6950 1495 l0 -134 136 -3 136 -3 -126 -98 -127 -98 23 -29 c13 -15
52 -60 87 -99 l63 -71 -191 0 -191 0 0 -135 0 -135 228 -2 227 -3 3 -202 2
-203 -227 -2 -228 -3 0 -135 0 -135 363 -3 362 -2 0 345 0 345 220 0 220 0 0
135 0 135 -209 0 -209 0 -73 81 c-42 46 -68 83 -62 87 5 4 74 56 151 116 l142
109 0 139 0 138 -360 0 -360 0 0 -135z"/>
<path d="M8110 1035 l0 -135 425 0 425 0 0 -445 0 -445 140 0 140 0 0 580 0
580 -565 0 -565 0 0 -135z"/>
<path d="M9460 1005 l0 -135 235 0 235 0 0 135 0 135 -235 0 -235 0 0 -135z"/>
<path d="M10110 710 l0 -430 -325 0 -325 0 0 -140 0 -140 460 0 460 0 0 570 0
570 -135 0 -135 0 0 -430z"/>
<path d="M4070 130 l0 -120 120 0 120 0 0 120 0 120 -120 0 -120 0 0 -120z"/>
<path d="M4960 130 l0 -120 120 0 120 0 0 120 0 120 -120 0 -120 0 0 -120z"/>
</g>
</svg>
