<?xml version="1.0" standalone="no"?>
<!DOCTYPE svg PUBLIC "-//W3C//DTD SVG 20010904//EN"
 "http://www.w3.org/TR/2001/REC-SVG-20010904/DTD/svg10.dtd">
<svg version="1.0" xmlns="http://www.w3.org/2000/svg"
 width="220.000000pt" height="222.000000pt" viewBox="0 0 220.000000 222.000000"
 preserveAspectRatio="xMidYMid meet">

<g transform="translate(0.000000,222.000000) scale(0.100000,-0.100000)"
fill="#000000" stroke="none">
<path d="M932 2102 l-32 -27 70 -94 70 -95 -24 -30 c-12 -17 -185 -258 -382
-536 -198 -278 -410 -572 -470 -655 l-111 -150 519 -3 c285 -1 752 -1 1038 0
l520 3 -122 165 c-185 252 -858 1199 -858 1208 0 4 29 48 65 97 36 49 65 91
65 94 0 3 -15 16 -34 28 l-33 21 -59 -79 c-32 -43 -60 -79 -63 -79 -3 0 -31
35 -61 76 -30 42 -58 77 -61 79 -3 3 -20 -8 -37 -23z m335 -535 c94 -133 287
-404 428 -602 l256 -360 -431 -3 c-236 -1 -623 -1 -859 0 l-429 3 197 276
c108 153 300 423 426 602 127 179 232 326 235 326 3 1 82 -108 177 -242z"/>
<path d="M974 1331 c-2 -2 -4 -22 -4 -43 l0 -38 -75 0 -75 0 0 -40 0 -40 75 0
75 0 0 -40 0 -40 -75 0 -75 0 0 -40 0 -40 75 0 75 0 0 -40 0 -40 -75 0 -75 0
0 -45 0 -45 75 0 75 0 0 -35 0 -35 -75 0 -75 0 0 -45 0 -45 120 0 120 0 0 325
c0 179 -3 325 -7 326 -34 3 -75 3 -79 0z"/>
<path d="M1153 1332 l-23 -3 0 -325 0 -324 40 0 40 0 0 80 0 79 78 3 77 3 0
40 0 40 -77 3 -78 3 0 39 0 40 80 0 80 0 0 40 0 40 -80 0 -80 0 0 40 0 40 80
0 80 0 0 40 0 39 -77 3 -78 3 -5 39 c-5 40 -13 46 -57 38z"/>
<path d="M70 420 c0 -13 -7 -20 -20 -20 -14 0 -20 -7 -20 -21 0 -12 8 -23 20
-26 11 -3 20 -12 20 -19 0 -8 -9 -14 -20 -14 -13 0 -20 -7 -20 -20 0 -13 7
-20 20 -20 13 0 20 -7 20 -20 0 -13 -7 -20 -20 -20 -13 0 -20 -7 -20 -20 0
-13 7 -20 20 -20 13 0 20 -7 20 -19 0 -18 33 -35 44 -23 3 3 6 68 6 144 l0
138 -25 0 c-18 0 -25 -5 -25 -20z"/>
<path d="M150 302 c0 -76 3 -141 6 -144 11 -12 44 5 44 23 0 12 7 19 20 19 13
0 20 7 20 20 0 13 -7 20 -20 20 -13 0 -20 7 -20 20 0 13 7 20 20 20 13 0 20 7
20 20 0 13 -7 20 -20 20 -11 0 -20 6 -20 14 0 7 9 16 20 19 12 3 20 14 20 26
0 14 -6 21 -20 21 -13 0 -20 7 -20 20 0 15 -7 20 -25 20 l-25 0 0 -138z"/>
<path d="M353 421 c-4 -14 -15 -21 -42 -23 l-36 -3 -3 -117 -3 -118 106 0 105
0 0 120 0 120 -40 0 c-33 0 -40 3 -40 20 0 27 -40 27 -47 1z m77 -81 c0 -5
-25 -10 -55 -10 -30 0 -55 5 -55 10 0 6 25 10 55 10 30 0 55 -4 55 -10z m0
-60 c0 -5 -25 -10 -55 -10 -30 0 -55 5 -55 10 0 6 25 10 55 10 30 0 55 -4 55
-10z m0 -65 c0 -12 -13 -15 -55 -15 -42 0 -55 3 -55 15 0 12 13 15 55 15 42 0
55 -3 55 -15z"/>
<path d="M599 435 c-1 -3 -2 -11 -3 -17 0 -7 -18 -14 -38 -16 -33 -3 -38 -7
-38 -28 0 -15 6 -24 15 -24 12 0 15 -15 15 -75 0 -60 -3 -75 -15 -75 -8 0 -15
-9 -15 -20 0 -19 7 -20 100 -20 93 0 100 1 100 20 0 13 -7 20 -20 20 -18 0
-20 7 -20 75 0 68 2 75 20 75 15 0 20 7 20 25 0 23 -4 25 -40 25 -33 0 -40 3
-40 20 0 13 -7 20 -20 20 -11 0 -21 -2 -21 -5z m39 -157 c-2 -60 -6 -73 -20
-76 -16 -3 -18 6 -18 72 0 70 2 76 20 76 19 0 21 -5 18 -72z"/>
<path d="M760 420 c0 -14 7 -20 22 -20 21 0 21 -1 3 -20 -18 -20 -18 -21 4
-44 l22 -23 -26 -17 c-18 -12 -25 -24 -23 -39 3 -21 7 -23 56 -26 18 -1 22 -7
22 -36 0 -28 4 -35 20 -35 16 0 20 7 20 34 0 33 2 35 38 38 30 2 38 7 40 26 3
21 0 22 -55 22 l-58 1 25 22 c14 12 39 32 55 45 l30 23 -53 -4 c-51 -4 -52 -3
-36 14 11 12 31 19 56 19 31 0 38 3 38 20 0 19 -7 20 -100 20 -93 0 -100 -1
-100 -20z"/>
<path d="M1002 358 l3 -83 35 0 c25 0 36 -5 38 -17 3 -15 -4 -18 -37 -18 -34
0 -41 -3 -41 -20 0 -16 7 -20 36 -20 27 0 37 -5 41 -20 3 -11 13 -20 23 -20
10 0 20 9 23 20 7 26 37 26 37 0 0 -13 7 -20 20 -20 17 0 20 7 20 40 0 39 -1
40 -35 40 -24 0 -35 5 -35 15 0 10 11 15 35 15 l35 0 0 85 0 85 -100 0 -101 0
3 -82z m153 32 c3 -5 -1 -10 -9 -10 -9 0 -16 5 -16 10 0 6 4 10 9 10 6 0 13
-4 16 -10z m-78 -6 c-3 -3 -12 -4 -19 -1 -8 3 -5 6 6 6 11 1 17 -2 13 -5z m-2
-54 c3 -5 -3 -10 -15 -10 -12 0 -18 5 -15 10 3 6 10 10 15 10 5 0 12 -4 15
-10z m85 0 c0 -5 -7 -10 -15 -10 -8 0 -15 5 -15 10 0 6 7 10 15 10 8 0 15 -4
15 -10z"/>
<path d="M1280 420 c0 -13 7 -20 20 -20 26 0 25 -12 -1 -28 -20 -13 -20 -14
-3 -33 17 -18 16 -19 -20 -19 -33 0 -37 -3 -34 -22 2 -19 10 -24 41 -26 35 -3
37 -5 37 -38 0 -33 -1 -34 -40 -34 -33 0 -40 -3 -40 -20 0 -18 7 -20 65 -20
l65 0 0 60 0 60 41 0 c33 0 40 3 37 18 -2 12 -14 18 -40 20 -20 2 -42 10 -50
19 -11 13 -8 20 20 43 53 44 44 60 -33 60 -58 0 -65 -2 -65 -20z"/>
<path d="M1484 425 c-11 -29 7 -35 107 -35 99 0 99 0 99 25 l0 25 -100 0 c-79
0 -102 -3 -106 -15z"/>
<path d="M1724 426 c-10 -25 5 -36 47 -36 36 0 40 2 37 23 -2 18 -10 23 -41
25 -26 2 -39 -1 -43 -12z"/>
<path d="M1850 415 c0 -20 5 -23 40 -23 36 -1 40 2 40 23 0 21 -4 24 -40 23
-35 0 -40 -3 -40 -23z"/>
<path d="M2083 420 c-4 -16 -15 -20 -62 -22 -48 -3 -56 -6 -56 -23 0 -17 8
-20 48 -23 26 -2 47 -5 47 -8 0 -2 -20 -45 -45 -94 -25 -49 -45 -92 -45 -95 0
-3 10 -5 23 -5 19 0 29 12 53 62 l29 61 5 -59 c4 -52 8 -59 28 -62 22 -3 22
-1 22 97 0 94 1 101 20 101 14 0 20 7 20 21 0 12 -8 23 -20 26 -11 3 -20 14
-20 24 0 26 -40 25 -47 -1z"/>
<path d="M1484 345 c-11 -27 7 -35 81 -35 l74 0 3 -77 c3 -72 5 -78 26 -81 22
-3 22 -2 22 102 l0 106 -100 0 c-79 0 -102 -3 -106 -15z"/>
<path d="M1724 345 c-10 -24 5 -35 47 -35 35 0 39 3 39 25 0 23 -4 25 -40 25
-26 0 -43 -5 -46 -15z"/>
<path d="M1846 352 c-3 -3 -6 -38 -6 -78 l0 -73 -57 -3 c-50 -3 -58 -6 -58
-23 0 -18 8 -20 83 -23 l82 -3 0 99 c0 90 -2 100 -19 105 -11 3 -22 2 -25 -1z"/>
<path d="M760 180 c0 -13 7 -20 20 -20 13 0 20 7 20 20 0 13 -7 20 -20 20 -13
0 -20 -7 -20 -20z"/>
<path d="M920 180 c0 -13 7 -20 20 -20 13 0 20 7 20 20 0 13 -7 20 -20 20 -13
0 -20 -7 -20 -20z"/>
</g>
</svg>
